<svg width="155" height="63" viewBox="0 0 155 63" fill="none" xmlns="http://www.w3.org/2000/svg">
<path d="M12.472 50.384C11.576 50.384 10.5947 50.3627 9.528 50.32C8.504 50.2773 7.45867 50.2133 6.392 50.128C5.368 50.0427 4.344 49.936 3.32 49.808C2.296 49.68 1.35733 49.5093 0.504 49.296V6.288C1.35733 6.07467 2.296 5.904 3.32 5.776C4.344 5.648 5.368 5.54133 6.392 5.456C7.45867 5.37067 8.504 5.30666 9.528 5.264C10.552 5.22133 11.512 5.2 12.408 5.2C14.968 5.2 17.3573 5.392 19.576 5.776C21.8373 6.16 23.7787 6.82133 25.4 7.76C27.064 8.656 28.3653 9.85066 29.304 11.344C30.2427 12.8373 30.712 14.672 30.712 16.848C30.712 19.28 30.136 21.2853 28.984 22.864C27.832 24.4 26.296 25.552 24.376 26.32C26.9787 27.088 29.048 28.304 30.584 29.968C32.12 31.632 32.888 33.9787 32.888 37.008C32.888 41.4453 31.2453 44.7947 27.96 47.056C24.7173 49.2747 19.5547 50.384 12.472 50.384ZM6.648 29.328V44.944C7.11733 44.9867 7.672 45.0293 8.312 45.072C8.86667 45.1147 9.50667 45.1573 10.232 45.2C11 45.2 11.8747 45.2 12.856 45.2C14.6907 45.2 16.4187 45.0933 18.04 44.88C19.704 44.624 21.1547 44.1973 22.392 43.6C23.6293 43.0027 24.6107 42.1707 25.336 41.104C26.104 40.0373 26.488 38.6933 26.488 37.072C26.488 35.6213 26.2107 34.4053 25.656 33.424C25.1013 32.4 24.2907 31.5893 23.224 30.992C22.2 30.3947 20.9627 29.968 19.512 29.712C18.0613 29.456 16.44 29.328 14.648 29.328H6.648ZM6.648 24.336H13.176C14.712 24.336 16.1627 24.2293 17.528 24.016C18.8933 23.8027 20.0667 23.4187 21.048 22.864C22.072 22.3093 22.8613 21.584 23.416 20.688C24.0133 19.792 24.312 18.6613 24.312 17.296C24.312 16.016 24.0133 14.9493 23.416 14.096C22.8187 13.2 21.9867 12.496 20.92 11.984C19.896 11.4293 18.68 11.024 17.272 10.768C15.864 10.512 14.3707 10.384 12.792 10.384C11.2133 10.384 9.976 10.4053 9.08 10.448C8.184 10.4907 7.37333 10.5547 6.648 10.64V24.336ZM51.229 50.64C47.5597 50.5547 44.957 49.7653 43.421 48.272C41.885 46.7787 41.117 44.4533 41.117 41.296V1.36L47.069 0.335999V40.336C47.069 41.3173 47.1543 42.128 47.325 42.768C47.4957 43.408 47.773 43.92 48.157 44.304C48.541 44.688 49.053 44.9867 49.693 45.2C50.333 45.3707 51.1223 45.52 52.061 45.648L51.229 50.64ZM88.121 33.36C88.121 36.0053 87.737 38.3947 86.969 40.528C86.201 42.6613 85.113 44.496 83.705 46.032C82.3397 47.568 80.697 48.7627 78.777 49.616C76.857 50.4267 74.7663 50.832 72.505 50.832C70.2437 50.832 68.153 50.4267 66.233 49.616C64.313 48.7627 62.649 47.568 61.241 46.032C59.8757 44.496 58.809 42.6613 58.041 40.528C57.273 38.3947 56.889 36.0053 56.889 33.36C56.889 30.7573 57.273 28.3893 58.041 26.256C58.809 24.08 59.8757 22.224 61.241 20.688C62.649 19.152 64.313 17.9787 66.233 17.168C68.153 16.3147 70.2437 15.888 72.505 15.888C74.7663 15.888 76.857 16.3147 78.777 17.168C80.697 17.9787 82.3397 19.152 83.705 20.688C85.113 22.224 86.201 24.08 86.969 26.256C87.737 28.3893 88.121 30.7573 88.121 33.36ZM81.913 33.36C81.913 29.6053 81.0597 26.64 79.353 24.464C77.689 22.2453 75.4063 21.136 72.505 21.136C69.6037 21.136 67.2997 22.2453 65.593 24.464C63.929 26.64 63.097 29.6053 63.097 33.36C63.097 37.1147 63.929 40.1013 65.593 42.32C67.2997 44.496 69.6037 45.584 72.505 45.584C75.4063 45.584 77.689 44.496 79.353 42.32C81.0597 40.1013 81.913 37.1147 81.913 33.36ZM117.359 46.672C116.847 47.0133 115.844 47.4613 114.351 48.016C112.9 48.528 111.194 48.784 109.231 48.784C107.226 48.784 105.327 48.464 103.535 47.824C101.786 47.184 100.25 46.2027 98.927 44.88C97.6043 43.5147 96.559 41.8293 95.791 39.824C95.023 37.8187 94.639 35.4293 94.639 32.656C94.639 30.224 95.0017 28.0053 95.727 26C96.4523 23.952 97.4977 22.2027 98.863 20.752C100.271 19.2587 101.978 18.1067 103.983 17.296C105.988 16.4427 108.25 16.016 110.767 16.016C113.54 16.016 115.951 16.2293 117.999 16.656C120.09 17.04 121.839 17.4027 123.247 17.744V47.44C123.247 52.56 121.924 56.272 119.279 58.576C116.634 60.88 112.623 62.032 107.247 62.032C105.156 62.032 103.172 61.8613 101.295 61.52C99.4603 61.1787 97.8603 60.7733 96.495 60.304L97.583 55.12C98.7777 55.5893 100.228 55.9947 101.935 56.336C103.684 56.72 105.498 56.912 107.375 56.912C110.916 56.912 113.455 56.208 114.991 54.8C116.57 53.392 117.359 51.152 117.359 48.08V46.672ZM117.295 21.968C116.698 21.7973 115.887 21.648 114.863 21.52C113.882 21.3493 112.538 21.264 110.831 21.264C107.631 21.264 105.156 22.3093 103.407 24.4C101.7 26.4907 100.847 29.264 100.847 32.72C100.847 34.64 101.082 36.2827 101.551 37.648C102.063 39.0133 102.724 40.144 103.535 41.04C104.388 41.936 105.348 42.5973 106.415 43.024C107.524 43.4507 108.655 43.664 109.807 43.664C111.386 43.664 112.836 43.4507 114.159 43.024C115.482 42.5547 116.527 42.0213 117.295 41.424V21.968ZM141.239 45.712C143.671 45.712 145.463 45.392 146.615 44.752C147.81 44.112 148.407 43.088 148.407 41.68C148.407 40.2293 147.831 39.0773 146.679 38.224C145.527 37.3707 143.628 36.4107 140.983 35.344C139.703 34.832 138.466 34.32 137.271 33.808C136.119 33.2533 135.116 32.6133 134.263 31.888C133.41 31.1627 132.727 30.288 132.215 29.264C131.703 28.24 131.447 26.9813 131.447 25.488C131.447 22.544 132.535 20.2187 134.711 18.512C136.887 16.7627 139.852 15.888 143.607 15.888C144.546 15.888 145.484 15.952 146.423 16.08C147.362 16.1653 148.236 16.2933 149.047 16.464C149.858 16.592 150.562 16.7413 151.159 16.912C151.799 17.0827 152.29 17.232 152.631 17.36L151.543 22.48C150.903 22.1387 149.9 21.7973 148.535 21.456C147.17 21.072 145.527 20.88 143.607 20.88C141.943 20.88 140.492 21.2213 139.255 21.904C138.018 22.544 137.399 23.568 137.399 24.976C137.399 25.7013 137.527 26.3413 137.783 26.896C138.082 27.4507 138.508 27.9627 139.063 28.432C139.66 28.8587 140.386 29.264 141.239 29.648C142.092 30.032 143.116 30.4373 144.311 30.864C145.89 31.4613 147.298 32.0587 148.535 32.656C149.772 33.2107 150.818 33.872 151.671 34.64C152.567 35.408 153.25 36.3467 153.719 37.456C154.188 38.5227 154.423 39.8453 154.423 41.424C154.423 44.496 153.271 46.8213 150.967 48.4C148.706 49.9787 145.463 50.768 141.239 50.768C138.295 50.768 135.991 50.512 134.327 50C132.663 49.5307 131.532 49.168 130.935 48.912L132.023 43.792C132.706 44.048 133.794 44.432 135.287 44.944C136.78 45.456 138.764 45.712 141.239 45.712Z" fill="#12F7D6"/>
</svg>
