<svg width="541" height="113" viewBox="0 0 541 113" fill="none" xmlns="http://www.w3.org/2000/svg">
<path d="M66.635 50.401C66.635 57.421 65.543 63.544 63.359 68.77C61.175 73.918 58.094 78.208 54.116 81.64C50.138 84.994 45.38 87.529 39.842 89.245C34.304 90.883 28.22 91.702 21.59 91.702C18.314 91.702 14.687 91.546 10.709 91.234C6.809 91 3.26 90.493 0.0620003 89.713V11.089C3.26 10.309 6.809 9.802 10.709 9.568C14.687 9.25599 18.314 9.09999 21.59 9.09999C28.22 9.09999 34.304 9.95799 39.842 11.674C45.38 13.312 50.138 15.847 54.116 19.279C58.094 22.633 61.175 26.923 63.359 32.149C65.543 37.297 66.635 43.381 66.635 50.401ZM22.526 81.757C33.29 81.757 41.324 79.027 46.628 73.567C51.932 68.029 54.584 60.307 54.584 50.401C54.584 40.495 51.932 32.812 46.628 27.352C41.324 21.814 33.29 19.045 22.526 19.045C19.328 19.045 16.832 19.084 15.038 19.162C13.322 19.24 12.113 19.318 11.411 19.396V81.406C12.113 81.484 13.322 81.562 15.038 81.64C16.832 81.718 19.328 81.757 22.526 81.757ZM79.3752 60.697C79.3752 55.315 80.1552 50.635 81.7152 46.657C83.2752 42.601 85.3422 39.247 87.9162 36.595C90.4902 33.943 93.4542 31.954 96.8082 30.628C100.162 29.302 103.594 28.639 107.104 28.639C115.294 28.639 121.573 31.213 125.941 36.361C130.309 41.431 132.493 49.192 132.493 59.644C132.493 60.112 132.493 60.736 132.493 61.516C132.493 62.218 132.454 62.881 132.376 63.505H90.7242C91.1922 69.823 93.0252 74.62 96.2232 77.896C99.4212 81.172 104.413 82.81 111.199 82.81C115.021 82.81 118.219 82.498 120.793 81.874C123.445 81.172 125.434 80.509 126.76 79.885L128.281 89.011C126.955 89.713 124.615 90.454 121.261 91.234C117.985 92.014 114.241 92.404 110.029 92.404C104.725 92.404 100.123 91.624 96.2232 90.064C92.4012 88.426 89.2422 86.203 86.7462 83.395C84.2502 80.587 82.3782 77.272 81.1302 73.45C79.9602 69.55 79.3752 65.299 79.3752 60.697ZM121.144 54.73C121.222 49.816 119.974 45.799 117.4 42.679C114.904 39.481 111.433 37.882 106.987 37.882C104.491 37.882 102.268 38.389 100.318 39.403C98.4462 40.339 96.8472 41.587 95.5212 43.147C94.1952 44.707 93.1422 46.501 92.3622 48.529C91.6602 50.557 91.1922 52.624 90.9582 54.73H121.144ZM195.626 30.16C192.584 41.548 188.996 52.468 184.862 62.92C180.806 73.372 176.867 82.732 173.045 91H163.217C159.395 82.732 155.417 73.372 151.283 62.92C147.227 52.468 143.678 41.548 140.636 30.16H152.336C153.272 33.982 154.364 38.077 155.612 42.445C156.938 46.735 158.303 51.025 159.707 55.315C161.189 59.527 162.671 63.622 164.153 67.6C165.635 71.578 167.039 75.127 168.365 78.247C169.691 75.127 171.095 71.578 172.577 67.6C174.059 63.622 175.502 59.527 176.906 55.315C178.388 51.025 179.753 46.735 181.001 42.445C182.327 38.077 183.458 33.982 184.394 30.16H195.626ZM201.86 60.697C201.86 55.315 202.64 50.635 204.2 46.657C205.76 42.601 207.827 39.247 210.401 36.595C212.975 33.943 215.939 31.954 219.293 30.628C222.647 29.302 226.079 28.639 229.589 28.639C237.779 28.639 244.058 31.213 248.426 36.361C252.794 41.431 254.978 49.192 254.978 59.644C254.978 60.112 254.978 60.736 254.978 61.516C254.978 62.218 254.939 62.881 254.861 63.505H213.209C213.677 69.823 215.51 74.62 218.708 77.896C221.906 81.172 226.898 82.81 233.684 82.81C237.506 82.81 240.704 82.498 243.278 81.874C245.93 81.172 247.919 80.509 249.245 79.885L250.766 89.011C249.44 89.713 247.1 90.454 243.746 91.234C240.47 92.014 236.726 92.404 232.514 92.404C227.21 92.404 222.608 91.624 218.708 90.064C214.886 88.426 211.727 86.203 209.231 83.395C206.735 80.587 204.863 77.272 203.615 73.45C202.445 69.55 201.86 65.299 201.86 60.697ZM243.629 54.73C243.707 49.816 242.459 45.799 239.885 42.679C237.389 39.481 233.918 37.882 229.472 37.882C226.976 37.882 224.753 38.389 222.803 39.403C220.931 40.339 219.332 41.587 218.006 43.147C216.68 44.707 215.627 46.501 214.847 48.529C214.145 50.557 213.677 52.624 213.443 54.73H243.629ZM288.86 92.17C282.152 92.014 277.394 90.571 274.586 87.841C271.778 85.111 270.374 80.86 270.374 75.088V2.07999L281.255 0.207997V73.333C281.255 75.127 281.411 76.609 281.723 77.779C282.035 78.949 282.542 79.885 283.244 80.587C283.946 81.289 284.882 81.835 286.052 82.225C287.222 82.537 288.665 82.81 290.381 83.044L288.86 92.17ZM356.303 60.58C356.303 65.416 355.601 69.784 354.197 73.684C352.793 77.584 350.804 80.938 348.23 83.746C345.734 86.554 342.731 88.738 339.221 90.298C335.711 91.78 331.889 92.521 327.755 92.521C323.621 92.521 319.799 91.78 316.289 90.298C312.779 88.738 309.737 86.554 307.163 83.746C304.667 80.938 302.717 77.584 301.313 73.684C299.909 69.784 299.207 65.416 299.207 60.58C299.207 55.822 299.909 51.493 301.313 47.593C302.717 43.615 304.667 40.222 307.163 37.414C309.737 34.606 312.779 32.461 316.289 30.979C319.799 29.419 323.621 28.639 327.755 28.639C331.889 28.639 335.711 29.419 339.221 30.979C342.731 32.461 345.734 34.606 348.23 37.414C350.804 40.222 352.793 43.615 354.197 47.593C355.601 51.493 356.303 55.822 356.303 60.58ZM344.954 60.58C344.954 53.716 343.394 48.295 340.274 44.317C337.232 40.261 333.059 38.233 327.755 38.233C322.451 38.233 318.239 40.261 315.119 44.317C312.077 48.295 310.556 53.716 310.556 60.58C310.556 67.444 312.077 72.904 315.119 76.96C318.239 80.938 322.451 82.927 327.755 82.927C333.059 82.927 337.232 80.938 340.274 76.96C343.394 72.904 344.954 67.444 344.954 60.58ZM413.849 60.697C413.849 53.599 412.094 48.139 408.584 44.317C405.074 40.495 400.394 38.584 394.544 38.584C391.268 38.584 388.694 38.701 386.822 38.935C385.028 39.169 383.585 39.442 382.493 39.754V78.13C383.819 79.222 385.73 80.275 388.226 81.289C390.722 82.303 393.452 82.81 396.416 82.81C399.536 82.81 402.188 82.264 404.372 81.172C406.634 80.002 408.467 78.442 409.871 76.492C411.275 74.464 412.289 72.124 412.913 69.472C413.537 66.742 413.849 63.817 413.849 60.697ZM425.198 60.697C425.198 65.299 424.574 69.55 423.326 73.45C422.156 77.35 420.401 80.704 418.061 83.512C415.721 86.32 412.835 88.504 409.403 90.064C406.049 91.624 402.188 92.404 397.82 92.404C394.31 92.404 391.19 91.936 388.46 91C385.808 90.064 383.819 89.167 382.493 88.309V112.645H371.612V32.032C374.186 31.408 377.384 30.745 381.206 30.043C385.106 29.263 389.591 28.873 394.661 28.873C399.341 28.873 403.553 29.614 407.297 31.096C411.041 32.578 414.239 34.684 416.891 37.414C419.543 40.144 421.571 43.498 422.975 47.476C424.457 51.376 425.198 55.783 425.198 60.697ZM437.116 60.697C437.116 55.315 437.896 50.635 439.456 46.657C441.016 42.601 443.083 39.247 445.657 36.595C448.231 33.943 451.195 31.954 454.549 30.628C457.903 29.302 461.335 28.639 464.845 28.639C473.035 28.639 479.314 31.213 483.682 36.361C488.05 41.431 490.234 49.192 490.234 59.644C490.234 60.112 490.234 60.736 490.234 61.516C490.234 62.218 490.195 62.881 490.117 63.505H448.465C448.933 69.823 450.766 74.62 453.964 77.896C457.162 81.172 462.154 82.81 468.94 82.81C472.762 82.81 475.96 82.498 478.534 81.874C481.186 81.172 483.175 80.509 484.501 79.885L486.022 89.011C484.696 89.713 482.356 90.454 479.002 91.234C475.726 92.014 471.982 92.404 467.77 92.404C462.466 92.404 457.864 91.624 453.964 90.064C450.142 88.426 446.983 86.203 444.487 83.395C441.991 80.587 440.119 77.272 438.871 73.45C437.701 69.55 437.116 65.299 437.116 60.697ZM478.885 54.73C478.963 49.816 477.715 45.799 475.141 42.679C472.645 39.481 469.174 37.882 464.728 37.882C462.232 37.882 460.009 38.389 458.059 39.403C456.187 40.339 454.588 41.587 453.262 43.147C451.936 44.707 450.883 46.501 450.103 48.529C449.401 50.557 448.933 52.624 448.699 54.73H478.885ZM528.329 28.873C529.265 28.873 530.318 28.951 531.488 29.107C532.736 29.185 533.945 29.341 535.115 29.575C536.285 29.731 537.338 29.926 538.274 30.16C539.288 30.316 540.029 30.472 540.497 30.628L538.625 40.105C537.767 39.793 536.324 39.442 534.296 39.052C532.346 38.584 529.811 38.35 526.691 38.35C524.663 38.35 522.635 38.584 520.607 39.052C518.657 39.442 517.37 39.715 516.746 39.871V91H505.865V32.734C508.439 31.798 511.637 30.94 515.459 30.16C519.281 29.302 523.571 28.873 528.329 28.873Z" fill="#98FAEC"/>
</svg>
