<svg width="240" height="12" viewBox="0 0 240 12" fill="none" xmlns="http://www.w3.org/2000/svg">
<path d="M0.666667 6C0.666667 8.94552 3.05448 11.3333 6 11.3333C8.94552 11.3333 11.3333 8.94552 11.3333 6C11.3333 3.05448 8.94552 0.666667 6 0.666667C3.05448 0.666667 0.666667 3.05448 0.666667 6ZM228.667 6C228.667 8.94552 231.054 11.3333 234 11.3333C236.946 11.3333 239.333 8.94552 239.333 6C239.333 3.05448 236.946 0.666667 234 0.666667C231.054 0.666667 228.667 3.05448 228.667 6ZM6 6V7H234V6V5H6V6Z" fill="#12F7D6"/>
</svg>
