<svg width="224" height="47" viewBox="0 0 224 47" fill="none" xmlns="http://www.w3.org/2000/svg">
<path d="M21.576 46.96C18.4613 46.96 15.624 46.448 13.064 45.424C10.504 44.4 8.30667 42.9067 6.472 40.944C4.63733 38.9813 3.208 36.5707 2.184 33.712C1.20267 30.8107 0.712 27.504 0.712 23.792C0.712 20.08 1.26667 16.7947 2.376 13.936C3.528 11.0347 5.064 8.60267 6.984 6.64C8.904 4.67733 11.144 3.184 13.704 2.16C16.264 1.136 18.9947 0.623997 21.896 0.623997C23.7307 0.623997 25.3733 0.751998 26.824 1.008C28.3173 1.264 29.5973 1.56267 30.664 1.904C31.7733 2.24533 32.6693 2.58666 33.352 2.928C34.0347 3.26933 34.504 3.52533 34.76 3.696L32.968 8.816C32.584 8.56 32.0293 8.28267 31.304 7.984C30.5787 7.68533 29.7467 7.38667 28.808 7.088C27.912 6.78933 26.9093 6.55467 25.8 6.384C24.7333 6.17067 23.6453 6.064 22.536 6.064C20.1893 6.064 18.0773 6.46933 16.2 7.28C14.3227 8.09067 12.7227 9.264 11.4 10.8C10.0773 12.336 9.05333 14.2133 8.328 16.432C7.64533 18.608 7.304 21.0613 7.304 23.792C7.304 26.4373 7.60267 28.848 8.2 31.024C8.84 33.2 9.77867 35.0773 11.016 36.656C12.2533 38.192 13.7893 39.3867 15.624 40.24C17.5013 41.0933 19.6773 41.52 22.152 41.52C25.0107 41.52 27.3787 41.2213 29.256 40.624C31.1333 40.0267 32.5413 39.4933 33.48 39.024L35.08 44.144C34.7813 44.3573 34.248 44.6347 33.48 44.976C32.712 45.2747 31.752 45.5733 30.6 45.872C29.448 46.1707 28.104 46.4267 26.568 46.64C25.032 46.8533 23.368 46.96 21.576 46.96ZM70.246 29.36C70.246 32.0053 69.862 34.3947 69.094 36.528C68.326 38.6613 67.238 40.496 65.83 42.032C64.4647 43.568 62.822 44.7627 60.902 45.616C58.982 46.4267 56.8913 46.832 54.63 46.832C52.3687 46.832 50.278 46.4267 48.358 45.616C46.438 44.7627 44.774 43.568 43.366 42.032C42.0007 40.496 40.934 38.6613 40.166 36.528C39.398 34.3947 39.014 32.0053 39.014 29.36C39.014 26.7573 39.398 24.3893 40.166 22.256C40.934 20.08 42.0007 18.224 43.366 16.688C44.774 15.152 46.438 13.9787 48.358 13.168C50.278 12.3147 52.3687 11.888 54.63 11.888C56.8913 11.888 58.982 12.3147 60.902 13.168C62.822 13.9787 64.4647 15.152 65.83 16.688C67.238 18.224 68.326 20.08 69.094 22.256C69.862 24.3893 70.246 26.7573 70.246 29.36ZM64.038 29.36C64.038 25.6053 63.1847 22.64 61.478 20.464C59.814 18.2453 57.5313 17.136 54.63 17.136C51.7287 17.136 49.4247 18.2453 47.718 20.464C46.054 22.64 45.222 25.6053 45.222 29.36C45.222 33.1147 46.054 36.1013 47.718 38.32C49.4247 40.496 51.7287 41.584 54.63 41.584C57.5313 41.584 59.814 40.496 61.478 38.32C63.1847 36.1013 64.038 33.1147 64.038 29.36ZM78.62 13.68C79.9853 13.3387 81.7987 12.976 84.06 12.592C86.3213 12.208 88.924 12.016 91.868 12.016C94.5133 12.016 96.7107 12.4 98.46 13.168C100.209 13.8933 101.596 14.9387 102.62 16.304C103.687 17.6267 104.433 19.2267 104.86 21.104C105.287 22.9813 105.5 25.0507 105.5 27.312V46H99.548V28.592C99.548 26.544 99.3987 24.7947 99.1 23.344C98.844 21.8933 98.396 20.72 97.756 19.824C97.116 18.928 96.2627 18.288 95.196 17.904C94.1293 17.4773 92.8067 17.264 91.228 17.264C90.588 17.264 89.9267 17.2853 89.244 17.328C88.5613 17.3707 87.9 17.4347 87.26 17.52C86.6627 17.5627 86.108 17.6267 85.596 17.712C85.1267 17.7973 84.7853 17.8613 84.572 17.904V46H78.62V13.68ZM120.938 12.72H133.546V17.712H120.938V33.072C120.938 34.736 121.066 36.1227 121.322 37.232C121.578 38.2987 121.962 39.152 122.474 39.792C122.986 40.3893 123.626 40.816 124.394 41.072C125.162 41.328 126.058 41.456 127.082 41.456C128.874 41.456 130.303 41.264 131.37 40.88C132.479 40.4533 133.247 40.1547 133.674 39.984L134.826 44.912C134.229 45.2107 133.183 45.5733 131.69 46C130.197 46.4693 128.49 46.704 126.57 46.704C124.309 46.704 122.431 46.4267 120.938 45.872C119.487 45.2747 118.314 44.4 117.418 43.248C116.522 42.096 115.882 40.688 115.498 39.024C115.157 37.3173 114.986 35.3547 114.986 33.136V3.44L120.938 2.416V12.72ZM152.384 41.712C153.792 41.712 155.029 41.6907 156.096 41.648C157.205 41.5627 158.123 41.4347 158.848 41.264V31.344C158.421 31.1307 157.717 30.96 156.736 30.832C155.797 30.6613 154.645 30.576 153.28 30.576C152.384 30.576 151.424 30.64 150.4 30.768C149.419 30.896 148.501 31.1733 147.648 31.6C146.837 31.984 146.155 32.5387 145.6 33.264C145.045 33.9467 144.768 34.864 144.768 36.016C144.768 38.1493 145.451 39.6427 146.816 40.496C148.181 41.3067 150.037 41.712 152.384 41.712ZM151.872 11.888C154.261 11.888 156.267 12.208 157.888 12.848C159.552 13.4453 160.875 14.32 161.856 15.472C162.88 16.5813 163.605 17.9253 164.032 19.504C164.459 21.04 164.672 22.7467 164.672 24.624V45.424C164.16 45.5093 163.435 45.6373 162.496 45.808C161.6 45.936 160.576 46.064 159.424 46.192C158.272 46.32 157.013 46.4267 155.648 46.512C154.325 46.64 153.003 46.704 151.68 46.704C149.803 46.704 148.075 46.512 146.496 46.128C144.917 45.744 143.552 45.1467 142.4 44.336C141.248 43.4827 140.352 42.3733 139.712 41.008C139.072 39.6427 138.752 38 138.752 36.08C138.752 34.2453 139.115 32.6667 139.84 31.344C140.608 30.0213 141.632 28.9547 142.912 28.144C144.192 27.3333 145.685 26.736 147.392 26.352C149.099 25.968 150.891 25.776 152.768 25.776C153.365 25.776 153.984 25.8187 154.624 25.904C155.264 25.9467 155.861 26.032 156.416 26.16C157.013 26.2453 157.525 26.3307 157.952 26.416C158.379 26.5013 158.677 26.5653 158.848 26.608V24.944C158.848 23.9627 158.741 23.0027 158.528 22.064C158.315 21.0827 157.931 20.2293 157.376 19.504C156.821 18.736 156.053 18.1387 155.072 17.712C154.133 17.2427 152.896 17.008 151.36 17.008C149.397 17.008 147.669 17.1573 146.176 17.456C144.725 17.712 143.637 17.9893 142.912 18.288L142.208 13.36C142.976 13.0187 144.256 12.6987 146.048 12.4C147.84 12.0587 149.781 11.888 151.872 11.888ZM189.022 46.768C186.334 46.768 183.966 46.3413 181.918 45.488C179.912 44.6347 178.206 43.44 176.798 41.904C175.432 40.368 174.408 38.5547 173.726 36.464C173.043 34.3307 172.702 31.984 172.702 29.424C172.702 26.864 173.064 24.5173 173.79 22.384C174.558 20.2507 175.624 18.416 176.99 16.88C178.355 15.3013 180.019 14.0853 181.982 13.232C183.987 12.336 186.206 11.888 188.638 11.888C190.131 11.888 191.624 12.016 193.118 12.272C194.611 12.528 196.04 12.9333 197.406 13.488L196.062 18.544C195.166 18.1173 194.12 17.776 192.926 17.52C191.774 17.264 190.536 17.136 189.214 17.136C185.886 17.136 183.326 18.1813 181.534 20.272C179.784 22.3627 178.91 25.4133 178.91 29.424C178.91 31.216 179.102 32.8587 179.486 34.352C179.912 35.8453 180.552 37.1253 181.406 38.192C182.302 39.2587 183.432 40.0907 184.798 40.688C186.163 41.2427 187.827 41.52 189.79 41.52C191.368 41.52 192.798 41.3707 194.078 41.072C195.358 40.7733 196.36 40.4533 197.086 40.112L197.918 45.104C197.576 45.3173 197.086 45.5307 196.446 45.744C195.806 45.9147 195.08 46.064 194.27 46.192C193.459 46.3627 192.584 46.4907 191.646 46.576C190.75 46.704 189.875 46.768 189.022 46.768ZM209.876 12.72H222.484V17.712H209.876V33.072C209.876 34.736 210.004 36.1227 210.26 37.232C210.516 38.2987 210.9 39.152 211.412 39.792C211.924 40.3893 212.564 40.816 213.332 41.072C214.1 41.328 214.996 41.456 216.02 41.456C217.812 41.456 219.241 41.264 220.308 40.88C221.417 40.4533 222.185 40.1547 222.612 39.984L223.764 44.912C223.166 45.2107 222.121 45.5733 220.628 46C219.134 46.4693 217.428 46.704 215.508 46.704C213.246 46.704 211.369 46.4267 209.876 45.872C208.425 45.2747 207.252 44.4 206.356 43.248C205.46 42.096 204.82 40.688 204.436 39.024C204.094 37.3173 203.924 35.3547 203.924 33.136V3.44L209.876 2.416V12.72Z" fill="#12F7D6"/>
</svg>
