<svg width="42" height="18" viewBox="0 0 42 18" fill="none" xmlns="http://www.w3.org/2000/svg">
<rect width="42" height="18" rx="8" fill="#12F7D6"/>
<path d="M12.522 14.168C11.3273 14.168 10.436 13.734 9.848 12.866C9.26933 11.998 8.98 10.7473 8.98 9.114C8.98 7.48067 9.26933 6.23 9.848 5.362C10.436 4.494 11.3273 4.06 12.522 4.06C12.97 4.06 13.3573 4.12067 13.684 4.242C14.0107 4.36333 14.2907 4.52667 14.524 4.732C14.7573 4.93733 14.9533 5.17067 15.112 5.432C15.2707 5.684 15.4107 5.94067 15.532 6.202L14.524 6.664C14.44 6.44933 14.342 6.24867 14.23 6.062C14.118 5.866 13.9827 5.698 13.824 5.558C13.6747 5.40867 13.4927 5.292 13.278 5.208C13.0727 5.124 12.8207 5.082 12.522 5.082C11.7473 5.082 11.1687 5.376 10.786 5.964C10.4127 6.552 10.226 7.336 10.226 8.316V9.912C10.226 10.892 10.4127 11.676 10.786 12.264C11.1687 12.852 11.7473 13.146 12.522 13.146C12.8207 13.146 13.0727 13.104 13.278 13.02C13.4927 12.936 13.6747 12.824 13.824 12.684C13.9827 12.5347 14.118 12.3667 14.23 12.18C14.342 11.984 14.44 11.7787 14.524 11.564L15.532 12.026C15.4107 12.2967 15.2707 12.558 15.112 12.81C14.9533 13.062 14.7573 13.2907 14.524 13.496C14.2907 13.7013 14.0107 13.8647 13.684 13.986C13.3573 14.1073 12.97 14.168 12.522 14.168ZM20.5665 14.168C19.6892 14.168 18.9705 14.0093 18.4105 13.692C17.8505 13.3653 17.3885 12.95 17.0245 12.446L17.8785 11.746C18.2612 12.222 18.6625 12.5767 19.0825 12.81C19.5119 13.0433 20.0205 13.16 20.6085 13.16C21.3179 13.16 21.8592 12.9967 22.2325 12.67C22.6059 12.3433 22.7925 11.886 22.7925 11.298C22.7925 10.822 22.6572 10.4533 22.3865 10.192C22.1159 9.92133 21.6445 9.73 20.9725 9.618L19.8805 9.436C19.4045 9.352 19.0032 9.226 18.6765 9.058C18.3592 8.89 18.1025 8.68933 17.9065 8.456C17.7105 8.21333 17.5705 7.952 17.4865 7.672C17.4025 7.38267 17.3605 7.084 17.3605 6.776C17.3605 5.88 17.6545 5.20333 18.2425 4.746C18.8305 4.28867 19.6239 4.06 20.6225 4.06C21.4065 4.06 22.0645 4.19067 22.5965 4.452C23.1379 4.71333 23.5719 5.082 23.8985 5.558L23.0725 6.272C22.8019 5.91733 22.4752 5.628 22.0925 5.404C21.7099 5.18 21.2152 5.068 20.6085 5.068C19.9459 5.068 19.4372 5.208 19.0825 5.488C18.7279 5.768 18.5505 6.188 18.5505 6.748C18.5505 7.18667 18.6812 7.546 18.9425 7.826C19.2132 8.09667 19.6939 8.29267 20.3845 8.414L21.4345 8.596C21.9105 8.68 22.3119 8.806 22.6385 8.974C22.9652 9.142 23.2265 9.34267 23.4225 9.576C23.6279 9.80933 23.7725 10.0707 23.8565 10.36C23.9405 10.6493 23.9825 10.9527 23.9825 11.27C23.9825 12.1753 23.6839 12.8847 23.0865 13.398C22.4985 13.9113 21.6585 14.168 20.5665 14.168ZM28.9611 14.168C28.0837 14.168 27.3651 14.0093 26.8051 13.692C26.2451 13.3653 25.7831 12.95 25.4191 12.446L26.2731 11.746C26.6557 12.222 27.0571 12.5767 27.4771 12.81C27.9064 13.0433 28.4151 13.16 29.0031 13.16C29.7124 13.16 30.2537 12.9967 30.6271 12.67C31.0004 12.3433 31.1871 11.886 31.1871 11.298C31.1871 10.822 31.0517 10.4533 30.7811 10.192C30.5104 9.92133 30.0391 9.73 29.3671 9.618L28.2751 9.436C27.7991 9.352 27.3977 9.226 27.0711 9.058C26.7537 8.89 26.4971 8.68933 26.3011 8.456C26.1051 8.21333 25.9651 7.952 25.8811 7.672C25.7971 7.38267 25.7551 7.084 25.7551 6.776C25.7551 5.88 26.0491 5.20333 26.6371 4.746C27.2251 4.28867 28.0184 4.06 29.0171 4.06C29.8011 4.06 30.4591 4.19067 30.9911 4.452C31.5324 4.71333 31.9664 5.082 32.2931 5.558L31.4671 6.272C31.1964 5.91733 30.8697 5.628 30.4871 5.404C30.1044 5.18 29.6097 5.068 29.0031 5.068C28.3404 5.068 27.8317 5.208 27.4771 5.488C27.1224 5.768 26.9451 6.188 26.9451 6.748C26.9451 7.18667 27.0757 7.546 27.3371 7.826C27.6077 8.09667 28.0884 8.29267 28.7791 8.414L29.8291 8.596C30.3051 8.68 30.7064 8.806 31.0331 8.974C31.3597 9.142 31.6211 9.34267 31.8171 9.576C32.0224 9.80933 32.1671 10.0707 32.2511 10.36C32.3351 10.6493 32.3771 10.9527 32.3771 11.27C32.3771 12.1753 32.0784 12.8847 31.4811 13.398C30.8931 13.9113 30.0531 14.168 28.9611 14.168Z" fill="#292F36"/>
</svg>
