<svg width="50" height="18" viewBox="0 0 50 18" fill="none" xmlns="http://www.w3.org/2000/svg">
<rect width="50" height="18" rx="8" fill="#12F7D6"/>
<path d="M14.104 9.562H10.296V14H9.12V4.228H10.296V8.54H14.104V4.228H15.28V14H14.104V9.562ZM21.1825 5.25V14H20.0065V5.25H16.7445V4.228H24.4445V5.25H21.1825ZM31.1591 9.1V6.006H31.0471L28.9891 11.032L26.9311 6.006H26.8191V9.1V14H25.7411V4.228H27.2531L28.9751 8.54H29.0591L30.7811 4.228H32.2371V14H31.1591V9.1ZM34.8636 14V4.228H36.0396V12.978H40.6736V14H34.8636Z" fill="#292F36"/>
</svg>
