<svg width="14" height="14" viewBox="0 0 14 14" fill="none" xmlns="http://www.w3.org/2000/svg">
<path fill-rule="evenodd" clip-rule="evenodd" d="M0.583087 3.48988C0.582992 3.49564 0.582983 3.50139 0.583058 3.50715V10.5C0.583058 11.4638 1.36923 12.25 2.33306 12.25H11.6664C12.6302 12.25 13.4164 11.4638 13.4164 10.5V3.50721C13.4165 3.50141 13.4165 3.4956 13.4164 3.4898C13.4108 2.53063 12.6268 1.75 11.6664 1.75H2.33306C1.3726 1.75 0.588565 2.53067 0.583087 3.48988ZM1.81189 3.2398C1.90837 3.04904 2.10675 2.91667 2.33306 2.91667H11.6664C11.8927 2.91667 12.0911 3.04904 12.1876 3.2398L6.99972 6.87128L1.81189 3.2398ZM12.2497 4.62038V10.5C12.2497 10.8195 11.9859 11.0833 11.6664 11.0833H2.33306C2.01356 11.0833 1.74972 10.8195 1.74972 10.5V4.62038L6.6652 8.06122C6.86606 8.20182 7.13339 8.20182 7.33424 8.06122L12.2497 4.62038Z" fill="#12F7D6"/>
</svg>
