<svg width="17" height="17" viewBox="0 0 17 17" fill="none" xmlns="http://www.w3.org/2000/svg">
<path fill-rule="evenodd" clip-rule="evenodd" d="M2.64634 1.82131C2.39697 1.71742 2.10957 1.77428 1.91855 1.9653C1.72753 2.15632 1.67067 2.44373 1.77456 2.69309L6.48789 14.0064C6.59455 14.2624 6.84855 14.4257 7.12572 14.4163C7.4029 14.407 7.64534 14.227 7.73454 13.9644L9.06315 10.0527L12.5852 13.5748C12.8456 13.8351 13.2677 13.8351 13.528 13.5748C13.7884 13.3144 13.7884 12.8923 13.528 12.632L10.006 9.1099L13.9177 7.78129C14.1803 7.6921 14.3602 7.44965 14.3696 7.17248C14.3789 6.8953 14.2157 6.6413 13.9597 6.53464L2.64634 1.82131ZM7.03977 11.8641L3.62792 3.67467L11.8173 7.08653L8.56222 8.19212C8.36604 8.25875 8.212 8.4128 8.14537 8.60897L7.03977 11.8641Z" fill="#12F7D6"/>
</svg>
