<svg width="32" height="32" viewBox="0 0 32 32" fill="none" xmlns="http://www.w3.org/2000/svg">
<g clip-path="url(#clip0_33_425)">
<path fill-rule="evenodd" clip-rule="evenodd" d="M17.3333 24.0001H26.6666C28.8758 24.0001 30.6666 22.2092 30.6666 20.0001V6.66675C30.6666 4.45761 28.8758 2.66675 26.6666 2.66675H5.33331C3.12417 2.66675 1.33331 4.45761 1.33331 6.66675V20.0001C1.33331 22.2092 3.12417 24.0001 5.33331 24.0001H14.6666V26.6667H10.6666C9.93027 26.6667 9.33331 27.2637 9.33331 28.0001C9.33331 28.7365 9.93027 29.3334 10.6666 29.3334H21.3333C22.0697 29.3334 22.6666 28.7365 22.6666 28.0001C22.6666 27.2637 22.0697 26.6667 21.3333 26.6667H17.3333V24.0001ZM5.33331 5.33341C4.59693 5.33341 3.99998 5.93037 3.99998 6.66675V20.0001C3.99998 20.7365 4.59693 21.3334 5.33331 21.3334H26.6666C27.403 21.3334 28 20.7365 28 20.0001V6.66675C28 5.93037 27.403 5.33341 26.6666 5.33341H5.33331Z" fill="#292F36"/>
</g>
<defs>
<clipPath id="clip0_33_425">
<rect width="32" height="32" fill="white"/>
</clipPath>
</defs>
</svg>
