<svg width="14" height="14" viewBox="0 0 14 14" fill="none" xmlns="http://www.w3.org/2000/svg">
<path fill-rule="evenodd" clip-rule="evenodd" d="M7.00033 3.5C5.71166 3.5 4.66699 4.54467 4.66699 5.83333C4.66699 7.122 5.71166 8.16667 7.00033 8.16667C8.28899 8.16667 9.33366 7.122 9.33366 5.83333C9.33366 4.54467 8.28899 3.5 7.00033 3.5ZM5.83366 5.83333C5.83366 5.189 6.35599 4.66667 7.00033 4.66667C7.64466 4.66667 8.16699 5.189 8.16699 5.83333C8.16699 6.47767 7.64466 7 7.00033 7C6.35599 7 5.83366 6.47767 5.83366 5.83333Z" fill="#12F7D6"/>
<path fill-rule="evenodd" clip-rule="evenodd" d="M6.67643 13.9018C6.6766 13.9019 6.67675 13.902 7.00033 13.4167L6.67643 13.9018C6.87238 14.0324 7.12796 14.0327 7.3239 13.902L7.00033 13.4167C7.3239 13.902 7.32373 13.9021 7.3239 13.902L7.32588 13.9007L7.32977 13.8981L7.34314 13.8891C7.3545 13.8813 7.3707 13.8703 7.39142 13.8559C7.43285 13.8272 7.49239 13.7854 7.56745 13.7312C7.71751 13.6228 7.92995 13.4646 8.18401 13.2623C8.69121 12.8584 9.36902 12.275 10.0488 11.5574C11.3845 10.1475 12.8337 8.10947 12.8337 5.83333C12.8337 4.28624 12.2191 2.80251 11.1251 1.70854C10.0312 0.614581 8.54742 0 7.00033 0C5.45323 0 3.9695 0.614581 2.87554 1.70854C1.78157 2.80251 1.16699 4.28624 1.16699 5.83333C1.16699 8.10947 2.61615 10.1475 3.95185 11.5574C4.63164 12.275 5.30944 12.8584 5.81664 13.2623C6.0707 13.4646 6.28314 13.6228 6.4332 13.7312C6.50826 13.7854 6.5678 13.8272 6.60923 13.8559C6.62995 13.8703 6.64615 13.8813 6.65751 13.8891L6.67088 13.8981L6.67477 13.9007L6.67643 13.9018ZM3.70049 2.5335C4.57566 1.65833 5.76265 1.16667 7.00033 1.16667C8.238 1.16667 9.42499 1.65833 10.3002 2.5335C11.1753 3.40867 11.667 4.59566 11.667 5.83333C11.667 7.64053 10.4911 9.39415 9.20185 10.7551C8.56914 11.4229 7.93444 11.9697 7.45726 12.3497C7.27968 12.4911 7.12456 12.6089 7.00032 12.7007C6.87609 12.6089 6.72098 12.4911 6.54339 12.3497C6.06622 11.9697 5.43152 11.4229 4.7988 10.7551C3.50951 9.39415 2.33366 7.64053 2.33366 5.83333C2.33366 4.59566 2.82532 3.40867 3.70049 2.5335Z" fill="#12F7D6"/>
</svg>
