<svg width="14" height="14" viewBox="0 0 14 14" fill="none" xmlns="http://www.w3.org/2000/svg">
<path fill-rule="evenodd" clip-rule="evenodd" d="M5.83301 1.16663C5.36888 1.16663 4.92376 1.351 4.59557 1.67919C4.26738 2.00738 4.08301 2.4525 4.08301 2.91663V3.49996H2.33301C1.36651 3.49996 0.583008 4.28346 0.583008 5.24996V11.0833C0.583008 12.0498 1.36651 12.8333 2.33301 12.8333H11.6663C12.6328 12.8333 13.4163 12.0498 13.4163 11.0833V5.24996C13.4163 4.28346 12.6328 3.49996 11.6663 3.49996H9.91634V2.91663C9.91634 2.4525 9.73197 2.00738 9.40378 1.67919C9.07559 1.351 8.63047 1.16663 8.16634 1.16663H5.83301ZM8.74967 3.49996V2.91663C8.74967 2.76192 8.68822 2.61354 8.57882 2.50415C8.46942 2.39475 8.32105 2.33329 8.16634 2.33329H5.83301C5.6783 2.33329 5.52993 2.39475 5.42053 2.50415C5.31113 2.61354 5.24967 2.76192 5.24967 2.91663V3.49996H8.74967ZM5.24967 4.66663H8.74967V11.6666H5.24967V4.66663ZM4.08301 4.66663H2.33301C2.01084 4.66663 1.74967 4.92779 1.74967 5.24996V11.0833C1.74967 11.4055 2.01084 11.6666 2.33301 11.6666H4.08301V4.66663ZM9.91634 11.6666V4.66663H11.6663C11.9885 4.66663 12.2497 4.92779 12.2497 5.24996V11.0833C12.2497 11.4055 11.9885 11.6666 11.6663 11.6666H9.91634Z" fill="#12F7D6"/>
</svg>
