<svg width="32" height="32" viewBox="0 0 32 32" fill="none" xmlns="http://www.w3.org/2000/svg">
<g clip-path="url(#clip0_33_454)">
<path d="M16 22.6666C15.2637 22.6666 14.6667 23.2635 14.6667 23.9999C14.6667 24.7363 15.2637 25.3333 16 25.3333H16.0134C16.7498 25.3333 17.3467 24.7363 17.3467 23.9999C17.3467 23.2635 16.7498 22.6666 16.0134 22.6666H16Z" fill="#292F36"/>
<path fill-rule="evenodd" clip-rule="evenodd" d="M9.33337 1.33325C7.12423 1.33325 5.33337 3.12411 5.33337 5.33325V26.6666C5.33337 28.8757 7.12423 30.6666 9.33337 30.6666H22.6667C24.8758 30.6666 26.6667 28.8757 26.6667 26.6666V5.33325C26.6667 3.12411 24.8758 1.33325 22.6667 1.33325H9.33337ZM8.00004 5.33325C8.00004 4.59687 8.59699 3.99992 9.33337 3.99992H22.6667C23.4031 3.99992 24 4.59687 24 5.33325V26.6666C24 27.403 23.4031 27.9999 22.6667 27.9999H9.33337C8.59699 27.9999 8.00004 27.403 8.00004 26.6666V5.33325Z" fill="#292F36"/>
</g>
<defs>
<clipPath id="clip0_33_454">
<rect width="32" height="32" fill="white"/>
</clipPath>
</defs>
</svg>
