<svg width="33" height="18" viewBox="0 0 33 18" fill="none" xmlns="http://www.w3.org/2000/svg">
<rect width="33" height="18" rx="8" fill="#12F7D6"/>
<path d="M14.72 4.228V11.466C14.72 11.8767 14.65 12.25 14.51 12.586C14.37 12.922 14.1693 13.2067 13.908 13.44C13.656 13.6733 13.3527 13.8553 12.998 13.986C12.6433 14.1073 12.256 14.168 11.836 14.168C11.0893 14.168 10.4733 13.9767 9.988 13.594C9.50267 13.202 9.18533 12.656 9.036 11.956L10.156 11.718C10.2027 11.914 10.2633 12.1007 10.338 12.278C10.422 12.446 10.5293 12.5953 10.66 12.726C10.8 12.8473 10.968 12.9453 11.164 13.02C11.36 13.0947 11.5933 13.132 11.864 13.132C12.396 13.132 12.8067 12.9827 13.096 12.684C13.3947 12.376 13.544 11.9 13.544 11.256V5.25H10.016V4.228H14.72ZM20.5665 14.168C19.6892 14.168 18.9705 14.0093 18.4105 13.692C17.8505 13.3653 17.3885 12.95 17.0245 12.446L17.8785 11.746C18.2612 12.222 18.6625 12.5767 19.0825 12.81C19.5119 13.0433 20.0205 13.16 20.6085 13.16C21.3179 13.16 21.8592 12.9967 22.2325 12.67C22.6059 12.3433 22.7925 11.886 22.7925 11.298C22.7925 10.822 22.6572 10.4533 22.3865 10.192C22.1159 9.92133 21.6445 9.73 20.9725 9.618L19.8805 9.436C19.4045 9.352 19.0032 9.226 18.6765 9.058C18.3592 8.89 18.1025 8.68933 17.9065 8.456C17.7105 8.21333 17.5705 7.952 17.4865 7.672C17.4025 7.38267 17.3605 7.084 17.3605 6.776C17.3605 5.88 17.6545 5.20333 18.2425 4.746C18.8305 4.28867 19.6239 4.06 20.6225 4.06C21.4065 4.06 22.0645 4.19067 22.5965 4.452C23.1379 4.71333 23.5719 5.082 23.8985 5.558L23.0725 6.272C22.8019 5.91733 22.4752 5.628 22.0925 5.404C21.7099 5.18 21.2152 5.068 20.6085 5.068C19.9459 5.068 19.4372 5.208 19.0825 5.488C18.7279 5.768 18.5505 6.188 18.5505 6.748C18.5505 7.18667 18.6812 7.546 18.9425 7.826C19.2132 8.09667 19.6939 8.29267 20.3845 8.414L21.4345 8.596C21.9105 8.68 22.3119 8.806 22.6385 8.974C22.9652 9.142 23.2265 9.34267 23.4225 9.576C23.6279 9.80933 23.7725 10.0707 23.8565 10.36C23.9405 10.6493 23.9825 10.9527 23.9825 11.27C23.9825 12.1753 23.6839 12.8847 23.0865 13.398C22.4985 13.9113 21.6585 14.168 20.5665 14.168Z" fill="#292F36"/>
</svg>
