<svg width="58" height="18" viewBox="0 0 58 18" fill="none" xmlns="http://www.w3.org/2000/svg">
<rect width="58" height="18" rx="8" fill="#12F7D6"/>
<path d="M10.436 14H9.26V4.228H12.816C13.7213 4.228 14.412 4.47533 14.888 4.97C15.364 5.46467 15.602 6.15533 15.602 7.042C15.602 7.83533 15.3967 8.47 14.986 8.946C14.5753 9.422 13.978 9.69733 13.194 9.772L15.686 14H14.37L11.99 9.828H10.436V14ZM12.788 8.834C13.2827 8.834 13.6653 8.71267 13.936 8.47C14.216 8.218 14.356 7.86333 14.356 7.406V6.678C14.356 6.22067 14.216 5.87067 13.936 5.628C13.6653 5.376 13.2827 5.25 12.788 5.25H10.436V8.834H12.788ZM17.6545 14V4.228H23.6745V5.25H18.8305V8.54H23.5065V9.562H18.8305V12.978H23.6745V14H17.6545ZM31.5231 14L30.6971 11.214H27.2671L26.4411 14H25.2231L28.2191 4.228H29.7731L32.7691 14H31.5231ZM29.0451 5.474H28.9191L27.5471 10.192H30.4171L29.0451 5.474ZM37.7056 14.168C36.5109 14.168 35.6196 13.734 35.0316 12.866C34.4529 11.998 34.1636 10.7473 34.1636 9.114C34.1636 7.48067 34.4529 6.23 35.0316 5.362C35.6196 4.494 36.5109 4.06 37.7056 4.06C38.1536 4.06 38.5409 4.12067 38.8676 4.242C39.1943 4.36333 39.4743 4.52667 39.7076 4.732C39.9409 4.93733 40.1369 5.17067 40.2956 5.432C40.4543 5.684 40.5943 5.94067 40.7156 6.202L39.7076 6.664C39.6236 6.44933 39.5256 6.24867 39.4136 6.062C39.3016 5.866 39.1663 5.698 39.0076 5.558C38.8583 5.40867 38.6763 5.292 38.4616 5.208C38.2563 5.124 38.0043 5.082 37.7056 5.082C36.9309 5.082 36.3523 5.376 35.9696 5.964C35.5963 6.552 35.4096 7.336 35.4096 8.316V9.912C35.4096 10.892 35.5963 11.676 35.9696 12.264C36.3523 12.852 36.9309 13.146 37.7056 13.146C38.0043 13.146 38.2563 13.104 38.4616 13.02C38.6763 12.936 38.8583 12.824 39.0076 12.684C39.1663 12.5347 39.3016 12.3667 39.4136 12.18C39.5256 11.984 39.6236 11.7787 39.7076 11.564L40.7156 12.026C40.5943 12.2967 40.4543 12.558 40.2956 12.81C40.1369 13.062 39.9409 13.2907 39.7076 13.496C39.4743 13.7013 39.1943 13.8647 38.8676 13.986C38.5409 14.1073 38.1536 14.168 37.7056 14.168ZM46.3661 5.25V14H45.1901V5.25H41.9281V4.228H49.6281V5.25H46.3661Z" fill="#292F36"/>
</svg>
