<svg width="40" height="42" viewBox="0 0 40 42" fill="none" xmlns="http://www.w3.org/2000/svg">
<path d="M16.276 10.664V27.016C16.276 27.976 16.1053 28.8507 15.764 29.64C15.444 30.4293 14.9747 31.1013 14.356 31.656C13.7587 32.2107 13.0333 32.6373 12.18 32.936C11.3267 33.2347 10.3773 33.384 9.332 33.384C7.36933 33.384 5.80133 32.8933 4.628 31.912C3.476 30.9307 2.72933 29.576 2.388 27.848L5.78 27.144C5.972 28.0613 6.33467 28.8293 6.868 29.448C7.40133 30.0667 8.23333 30.376 9.364 30.376C10.4093 30.376 11.22 30.0667 11.796 29.448C12.3933 28.808 12.692 27.8373 12.692 26.536V13.672H4.916V10.664H16.276ZM29.0955 33.384C27.1542 33.384 25.5222 33.0427 24.1995 32.36C22.8768 31.6773 21.7888 30.7707 20.9355 29.64L23.2395 27.432C24.0928 28.456 24.9995 29.2133 25.9595 29.704C26.9195 30.1733 28.0075 30.408 29.2235 30.408C30.6315 30.408 31.7088 30.088 32.4555 29.448C33.2235 28.808 33.6075 27.8907 33.6075 26.696C33.6075 25.736 33.3302 25 32.7755 24.488C32.2208 23.9547 31.2715 23.5707 29.9275 23.336L27.4955 22.952C26.4288 22.7813 25.5328 22.504 24.8075 22.12C24.0822 21.7147 23.4955 21.2453 23.0475 20.712C22.5995 20.1573 22.2688 19.5493 22.0555 18.888C21.8635 18.2053 21.7675 17.4907 21.7675 16.744C21.7675 14.632 22.4502 13.032 23.8155 11.944C25.1808 10.8347 27.0582 10.28 29.4475 10.28C31.2182 10.28 32.7222 10.568 33.9595 11.144C35.2182 11.6987 36.2315 12.488 36.9995 13.512L34.7595 15.752C34.1408 15.0053 33.4048 14.408 32.5515 13.96C31.7195 13.4907 30.6848 13.256 29.4475 13.256C28.1248 13.256 27.1115 13.544 26.4075 14.12C25.7248 14.6747 25.3835 15.496 25.3835 16.584C25.3835 17.5013 25.6502 18.2267 26.1835 18.76C26.7382 19.272 27.7088 19.6453 29.0955 19.88L31.4635 20.296C33.4688 20.6587 34.9302 21.3947 35.8475 22.504C36.7648 23.592 37.2235 24.9253 37.2235 26.504C37.2235 27.528 37.0422 28.4667 36.6795 29.32C36.3382 30.1733 35.8155 30.8987 35.1115 31.496C34.4288 32.0933 33.5755 32.5627 32.5515 32.904C31.5488 33.224 30.3968 33.384 29.0955 33.384Z" fill="#E7A020"/>
</svg>
