<svg width="58" height="42" viewBox="0 0 58 42" fill="none" xmlns="http://www.w3.org/2000/svg">
<path d="M10.24 33.384C7.40267 33.384 5.29067 32.3813 3.904 30.376C2.53867 28.3707 1.856 25.5227 1.856 21.832C1.856 18.1413 2.53867 15.2933 3.904 13.288C5.29067 11.2827 7.40267 10.28 10.24 10.28C11.328 10.28 12.2667 10.4293 13.056 10.728C13.8667 11.0053 14.56 11.4 15.136 11.912C15.712 12.4027 16.192 12.9893 16.576 13.672C16.9813 14.3333 17.312 15.048 17.568 15.816L14.336 16.904C14.1653 16.392 13.9733 15.912 13.76 15.464C13.5467 15.016 13.28 14.632 12.96 14.312C12.64 13.992 12.256 13.736 11.808 13.544C11.3813 13.352 10.848 13.256 10.208 13.256C8.62933 13.256 7.47733 13.864 6.752 15.08C6.02667 16.2747 5.664 17.896 5.664 19.944V23.72C5.664 25.768 6.02667 27.4 6.752 28.616C7.47733 29.8107 8.62933 30.408 10.208 30.408C10.848 30.408 11.3813 30.312 11.808 30.12C12.256 29.928 12.64 29.672 12.96 29.352C13.28 29.032 13.5467 28.648 13.76 28.2C13.9733 27.752 14.1653 27.272 14.336 26.76L17.568 27.848C17.312 28.616 16.9813 29.3413 16.576 30.024C16.192 30.6853 15.712 31.272 15.136 31.784C14.56 32.2747 13.8667 32.6693 13.056 32.968C12.2667 33.2453 11.328 33.384 10.24 33.384ZM28.5955 33.384C26.6542 33.384 25.0222 33.0427 23.6995 32.36C22.3768 31.6773 21.2888 30.7707 20.4355 29.64L22.7395 27.432C23.5928 28.456 24.4995 29.2133 25.4595 29.704C26.4195 30.1733 27.5075 30.408 28.7235 30.408C30.1315 30.408 31.2088 30.088 31.9555 29.448C32.7235 28.808 33.1075 27.8907 33.1075 26.696C33.1075 25.736 32.8302 25 32.2755 24.488C31.7208 23.9547 30.7715 23.5707 29.4275 23.336L26.9955 22.952C25.9288 22.7813 25.0328 22.504 24.3075 22.12C23.5822 21.7147 22.9955 21.2453 22.5475 20.712C22.0995 20.1573 21.7688 19.5493 21.5555 18.888C21.3635 18.2053 21.2675 17.4907 21.2675 16.744C21.2675 14.632 21.9502 13.032 23.3155 11.944C24.6808 10.8347 26.5582 10.28 28.9475 10.28C30.7182 10.28 32.2222 10.568 33.4595 11.144C34.7182 11.6987 35.7315 12.488 36.4995 13.512L34.2595 15.752C33.6408 15.0053 32.9048 14.408 32.0515 13.96C31.2195 13.4907 30.1848 13.256 28.9475 13.256C27.6248 13.256 26.6115 13.544 25.9075 14.12C25.2248 14.6747 24.8835 15.496 24.8835 16.584C24.8835 17.5013 25.1502 18.2267 25.6835 18.76C26.2382 19.272 27.2088 19.6453 28.5955 19.88L30.9635 20.296C32.9688 20.6587 34.4302 21.3947 35.3475 22.504C36.2648 23.592 36.7235 24.9253 36.7235 26.504C36.7235 27.528 36.5422 28.4667 36.1795 29.32C35.8382 30.1733 35.3155 30.8987 34.6115 31.496C33.9288 32.0933 33.0755 32.5627 32.0515 32.904C31.0488 33.224 29.8968 33.384 28.5955 33.384ZM47.783 33.384C45.8417 33.384 44.2097 33.0427 42.887 32.36C41.5643 31.6773 40.4763 30.7707 39.623 29.64L41.927 27.432C42.7803 28.456 43.687 29.2133 44.647 29.704C45.607 30.1733 46.695 30.408 47.911 30.408C49.319 30.408 50.3963 30.088 51.143 29.448C51.911 28.808 52.295 27.8907 52.295 26.696C52.295 25.736 52.0177 25 51.463 24.488C50.9083 23.9547 49.959 23.5707 48.615 23.336L46.183 22.952C45.1163 22.7813 44.2203 22.504 43.495 22.12C42.7697 21.7147 42.183 21.2453 41.735 20.712C41.287 20.1573 40.9563 19.5493 40.743 18.888C40.551 18.2053 40.455 17.4907 40.455 16.744C40.455 14.632 41.1377 13.032 42.503 11.944C43.8683 10.8347 45.7457 10.28 48.135 10.28C49.9057 10.28 51.4097 10.568 52.647 11.144C53.9057 11.6987 54.919 12.488 55.687 13.512L53.447 15.752C52.8283 15.0053 52.0923 14.408 51.239 13.96C50.407 13.4907 49.3723 13.256 48.135 13.256C46.8123 13.256 45.799 13.544 45.095 14.12C44.4123 14.6747 44.071 15.496 44.071 16.584C44.071 17.5013 44.3377 18.2267 44.871 18.76C45.4257 19.272 46.3963 19.6453 47.783 19.88L50.151 20.296C52.1563 20.6587 53.6177 21.3947 54.535 22.504C55.4523 23.592 55.911 24.9253 55.911 26.504C55.911 27.528 55.7297 28.4667 55.367 29.32C55.0257 30.1733 54.503 30.8987 53.799 31.496C53.1163 32.0933 52.263 32.5627 51.239 32.904C50.2363 33.224 49.0843 33.384 47.783 33.384Z" fill="#0C73B8"/>
</svg>
