<svg width="96" height="42" viewBox="0 0 96 42" fill="none" xmlns="http://www.w3.org/2000/svg">
<path d="M6.24 33H2.688V10.664H11.04C13.1733 10.664 14.7947 11.2613 15.904 12.456C17.0347 13.6507 17.6 15.2933 17.6 17.384C17.6 19.0907 17.184 20.4987 16.352 21.608C15.52 22.7173 14.3253 23.4 12.768 23.656L17.92 33H13.952L9.216 23.976H6.24V33ZM10.528 21.096C12.7467 21.096 13.856 20.0827 13.856 18.056V16.68C13.856 14.6533 12.7467 13.64 10.528 13.64H6.24V21.096H10.528ZM21.9395 33V10.664H35.9235V13.672H25.5235V20.168H35.5395V23.176H25.5235V29.992H35.9235V33H21.9395ZM53.159 33L51.463 27.048H44.359L42.663 33H39.015L45.543 10.664H50.439L56.967 33H53.159ZM48.039 14.28H47.783L45.031 24.072H50.791L48.039 14.28ZM67.8025 33.384C64.9652 33.384 62.8532 32.3813 61.4665 30.376C60.1012 28.3707 59.4185 25.5227 59.4185 21.832C59.4185 18.1413 60.1012 15.2933 61.4665 13.288C62.8532 11.2827 64.9652 10.28 67.8025 10.28C68.8905 10.28 69.8292 10.4293 70.6185 10.728C71.4292 11.0053 72.1225 11.4 72.6985 11.912C73.2745 12.4027 73.7545 12.9893 74.1385 13.672C74.5438 14.3333 74.8745 15.048 75.1305 15.816L71.8985 16.904C71.7278 16.392 71.5358 15.912 71.3225 15.464C71.1092 15.016 70.8425 14.632 70.5225 14.312C70.2025 13.992 69.8185 13.736 69.3705 13.544C68.9438 13.352 68.4105 13.256 67.7705 13.256C66.1918 13.256 65.0398 13.864 64.3145 15.08C63.5892 16.2747 63.2265 17.896 63.2265 19.944V23.72C63.2265 25.768 63.5892 27.4 64.3145 28.616C65.0398 29.8107 66.1918 30.408 67.7705 30.408C68.4105 30.408 68.9438 30.312 69.3705 30.12C69.8185 29.928 70.2025 29.672 70.5225 29.352C70.8425 29.032 71.1092 28.648 71.3225 28.2C71.5358 27.752 71.7278 27.272 71.8985 26.76L75.1305 27.848C74.8745 28.616 74.5438 29.3413 74.1385 30.024C73.7545 30.6853 73.2745 31.272 72.6985 31.784C72.1225 32.2747 71.4292 32.6693 70.6185 32.968C69.8292 33.2453 68.8905 33.384 67.8025 33.384ZM88.142 13.672V33H84.558V13.672H77.55V10.664H95.15V13.672H88.142Z" fill="#28A9E0"/>
</svg>
