<svg width="179" height="51" viewBox="0 0 179 51" fill="none" xmlns="http://www.w3.org/2000/svg">
<path d="M28.26 19.92C26.468 25.6373 24.6547 30.928 22.82 35.792C20.9853 40.656 19.1507 45.392 17.316 50H11.108C8.84667 43.472 6.84133 36.5813 5.092 29.328C3.38533 22.0747 1.78533 14.1813 0.292 5.648H6.82C7.41733 8.976 8.036 12.304 8.676 15.632C9.316 18.96 9.97733 22.2027 10.66 25.36C11.3427 28.4747 12.0253 31.4613 12.708 34.32C13.3907 37.1787 14.0947 39.824 14.82 42.256C16.5267 37.776 18.34 32.8693 20.26 27.536C22.18 22.16 23.972 16.6133 25.636 10.896H31.012C32.676 16.6133 34.4893 22.16 36.452 27.536C38.4147 32.8693 40.2493 37.776 41.956 42.256C42.6387 39.8667 43.3213 37.2427 44.004 34.384C44.6867 31.5253 45.348 28.5387 45.988 25.424C46.6707 22.2667 47.332 19.024 47.972 15.696C48.612 12.3253 49.2307 8.976 49.828 5.648H56.164C54.628 14.1813 52.9853 22.0747 51.236 29.328C49.5293 36.5813 47.5667 43.472 45.348 50H39.14C37.2627 45.392 35.428 40.656 33.636 35.792C31.844 30.928 30.052 25.6373 28.26 19.92ZM90.996 33.36C90.996 36.0053 90.612 38.3947 89.844 40.528C89.076 42.6613 87.988 44.496 86.58 46.032C85.2147 47.568 83.572 48.7627 81.652 49.616C79.732 50.4267 77.6413 50.832 75.38 50.832C73.1187 50.832 71.028 50.4267 69.108 49.616C67.188 48.7627 65.524 47.568 64.116 46.032C62.7507 44.496 61.684 42.6613 60.916 40.528C60.148 38.3947 59.764 36.0053 59.764 33.36C59.764 30.7573 60.148 28.3893 60.916 26.256C61.684 24.08 62.7507 22.224 64.116 20.688C65.524 19.152 67.188 17.9787 69.108 17.168C71.028 16.3147 73.1187 15.888 75.38 15.888C77.6413 15.888 79.732 16.3147 81.652 17.168C83.572 17.9787 85.2147 19.152 86.58 20.688C87.988 22.224 89.076 24.08 89.844 26.256C90.612 28.3893 90.996 30.7573 90.996 33.36ZM84.788 33.36C84.788 29.6053 83.9347 26.64 82.228 24.464C80.564 22.2453 78.2813 21.136 75.38 21.136C72.4787 21.136 70.1747 22.2453 68.468 24.464C66.804 26.64 65.972 29.6053 65.972 33.36C65.972 37.1147 66.804 40.1013 68.468 42.32C70.1747 44.496 72.4787 45.584 75.38 45.584C78.2813 45.584 80.564 44.496 82.228 42.32C83.9347 40.1013 84.788 37.1147 84.788 33.36ZM111.658 16.016C112.17 16.016 112.746 16.0587 113.386 16.144C114.069 16.1867 114.73 16.272 115.37 16.4C116.01 16.4853 116.586 16.592 117.098 16.72C117.653 16.8053 118.058 16.8907 118.314 16.976L117.29 22.16C116.821 21.9893 116.031 21.7973 114.922 21.584C113.855 21.328 112.469 21.2 110.762 21.2C109.653 21.2 108.543 21.328 107.434 21.584C106.367 21.7973 105.663 21.9467 105.322 22.032V50H99.37V18.128C100.778 17.616 102.527 17.1467 104.618 16.72C106.709 16.2507 109.055 16.016 111.658 16.016ZM136.09 31.696C137.37 32.6773 138.714 33.8933 140.122 35.344C141.572 36.7947 142.98 38.3733 144.346 40.08C145.754 41.744 147.076 43.4507 148.314 45.2C149.551 46.9067 150.596 48.5067 151.45 50H144.474C143.578 48.5067 142.532 46.992 141.338 45.456C140.186 43.8773 138.97 42.384 137.69 40.976C136.41 39.5253 135.108 38.2027 133.786 37.008C132.463 35.8133 131.204 34.8107 130.01 34V50H124.058V1.36L130.01 0.335999V30.672C131.034 29.648 132.164 28.5173 133.402 27.28C134.639 26.0427 135.855 24.784 137.05 23.504C138.244 22.224 139.375 21.008 140.442 19.856C141.508 18.6613 142.426 17.616 143.194 16.72H150.17C149.188 17.7867 148.122 18.96 146.97 20.24C145.818 21.52 144.623 22.8213 143.386 24.144C142.148 25.424 140.89 26.7253 139.61 28.048C138.372 29.328 137.199 30.544 136.09 31.696ZM165.239 45.712C167.671 45.712 169.463 45.392 170.615 44.752C171.81 44.112 172.407 43.088 172.407 41.68C172.407 40.2293 171.831 39.0773 170.679 38.224C169.527 37.3707 167.628 36.4107 164.983 35.344C163.703 34.832 162.466 34.32 161.271 33.808C160.119 33.2533 159.116 32.6133 158.263 31.888C157.41 31.1627 156.727 30.288 156.215 29.264C155.703 28.24 155.447 26.9813 155.447 25.488C155.447 22.544 156.535 20.2187 158.711 18.512C160.887 16.7627 163.852 15.888 167.607 15.888C168.546 15.888 169.484 15.952 170.423 16.08C171.362 16.1653 172.236 16.2933 173.047 16.464C173.858 16.592 174.562 16.7413 175.159 16.912C175.799 17.0827 176.29 17.232 176.631 17.36L175.543 22.48C174.903 22.1387 173.9 21.7973 172.535 21.456C171.17 21.072 169.527 20.88 167.607 20.88C165.943 20.88 164.492 21.2213 163.255 21.904C162.018 22.544 161.399 23.568 161.399 24.976C161.399 25.7013 161.527 26.3413 161.783 26.896C162.082 27.4507 162.508 27.9627 163.063 28.432C163.66 28.8587 164.386 29.264 165.239 29.648C166.092 30.032 167.116 30.4373 168.311 30.864C169.89 31.4613 171.298 32.0587 172.535 32.656C173.772 33.2107 174.818 33.872 175.671 34.64C176.567 35.408 177.25 36.3467 177.719 37.456C178.188 38.5227 178.423 39.8453 178.423 41.424C178.423 44.496 177.271 46.8213 174.967 48.4C172.706 49.9787 169.463 50.768 165.239 50.768C162.295 50.768 159.991 50.512 158.327 50C156.663 49.5307 155.532 49.168 154.935 48.912L156.023 43.792C156.706 44.048 157.794 44.432 159.287 44.944C160.78 45.456 162.764 45.712 165.239 45.712Z" fill="#12F7D6"/>
</svg>
