<svg width="127" height="51" viewBox="0 0 127 51" fill="none" xmlns="http://www.w3.org/2000/svg">
<path d="M34.136 5.648V11.024H20.184V50H13.976V11.024H0.024V5.648H34.136ZM46.2595 50H40.3075V16.72H46.2595V50ZM43.2515 10.704C42.1848 10.704 41.2675 10.3627 40.4995 9.68C39.7742 8.95466 39.4115 7.99467 39.4115 6.8C39.4115 5.60533 39.7742 4.66667 40.4995 3.984C41.2675 3.25866 42.1848 2.896 43.2515 2.896C44.3182 2.896 45.2142 3.25866 45.9395 3.984C46.7075 4.66667 47.0915 5.60533 47.0915 6.8C47.0915 7.99467 46.7075 8.95466 45.9395 9.68C45.2142 10.3627 44.3182 10.704 43.2515 10.704ZM62.063 16.72H74.671V21.712H62.063V37.072C62.063 38.736 62.191 40.1227 62.447 41.232C62.703 42.2987 63.087 43.152 63.599 43.792C64.111 44.3893 64.751 44.816 65.519 45.072C66.287 45.328 67.183 45.456 68.207 45.456C69.999 45.456 71.4283 45.264 72.495 44.88C73.6043 44.4533 74.3723 44.1547 74.799 43.984L75.951 48.912C75.3537 49.2107 74.3083 49.5733 72.815 50C71.3217 50.4693 69.615 50.704 67.695 50.704C65.4337 50.704 63.5563 50.4267 62.063 49.872C60.6123 49.2747 59.439 48.4 58.543 47.248C57.647 46.096 57.007 44.688 56.623 43.024C56.2817 41.3173 56.111 39.3547 56.111 37.136V7.44L62.063 6.416V16.72ZM92.229 50.64C88.5597 50.5547 85.957 49.7653 84.421 48.272C82.885 46.7787 82.117 44.4533 82.117 41.296V1.36L88.069 0.335999V40.336C88.069 41.3173 88.1543 42.128 88.325 42.768C88.4957 43.408 88.773 43.92 89.157 44.304C89.541 44.688 90.053 44.9867 90.693 45.2C91.333 45.3707 92.1223 45.52 93.061 45.648L92.229 50.64ZM97.889 33.424C97.889 30.48 98.3157 27.92 99.169 25.744C100.022 23.5253 101.153 21.6907 102.561 20.24C103.969 18.7893 105.59 17.7013 107.425 16.976C109.26 16.2507 111.137 15.888 113.057 15.888C117.537 15.888 120.972 17.296 123.361 20.112C125.75 22.8853 126.945 27.1307 126.945 32.848C126.945 33.104 126.945 33.4453 126.945 33.872C126.945 34.256 126.924 34.6187 126.881 34.96H104.097C104.353 38.416 105.356 41.04 107.105 42.832C108.854 44.624 111.585 45.52 115.297 45.52C117.388 45.52 119.137 45.3493 120.545 45.008C121.996 44.624 123.084 44.2613 123.809 43.92L124.641 48.912C123.916 49.296 122.636 49.7013 120.801 50.128C119.009 50.5547 116.961 50.768 114.657 50.768C111.756 50.768 109.238 50.3413 107.105 49.488C105.014 48.592 103.286 47.376 101.921 45.84C100.556 44.304 99.5317 42.4907 98.849 40.4C98.209 38.2667 97.889 35.9413 97.889 33.424ZM120.737 30.16C120.78 27.472 120.097 25.2747 118.689 23.568C117.324 21.8187 115.425 20.944 112.993 20.944C111.628 20.944 110.412 21.2213 109.345 21.776C108.321 22.288 107.446 22.9707 106.721 23.824C105.996 24.6773 105.42 25.6587 104.993 26.768C104.609 27.8773 104.353 29.008 104.225 30.16H120.737Z" fill="#12F7D6"/>
</svg>
